<svg xmlns="http://www.w3.org/2000/svg" width="1200" height="700" viewBox="0 0 1200 700">
  <defs>
    <linearGradient id="bg" x1="0" y1="0" x2="1" y2="1">
      <stop offset="0%" stop-color="#0a1422"/>
      <stop offset="100%" stop-color="#11253f"/>
    </linearGradient>
  </defs>
  <rect width="1200" height="700" fill="url(#bg)"/>
  <text x="46" y="58" fill="#e9f4ff" font-size="34" font-family="Verdana, sans-serif">CSI Reading - Amplitude and Phase Trends (Illustrative)</text>
  <text x="46" y="94" fill="#9ec0e6" font-size="20" font-family="Verdana, sans-serif">Subcarrier response over time showing gait periodicity and motion bursts.</text>

  <rect x="60" y="130" width="1080" height="230" rx="12" fill="#121f35" stroke="#4b689a"/>
  <rect x="60" y="390" width="1080" height="250" rx="12" fill="#121f35" stroke="#4b689a"/>

  <text x="85" y="165" fill="#dcecff" font-size="22" font-family="Verdana, sans-serif">Amplitude Window (TX0-RX0, 64 subcarriers)</text>
  <text x="85" y="425" fill="#dcecff" font-size="22" font-family="Verdana, sans-serif">Phase Window (unwrapped)</text>

  <polyline points="90,300 130,285 170,292 210,268 250,255 290,248 330,233 370,210 410,220 450,205 490,188 530,172 570,164 610,152 650,160 690,150 730,140 770,130 810,125 850,132 890,140 930,135 970,128 1010,120 1050,118 1090,114" fill="none" stroke="#63d8ff" stroke-width="4"/>

  <polyline points="90,600 130,585 170,590 210,570 250,548 290,540 330,520 370,498 410,510 450,492 490,476 530,455 570,442 610,430 650,438 690,426 730,412 770,400 810,392 850,398 890,407 930,398 970,386 1010,372 1050,360 1090,352" fill="none" stroke="#ffbf70" stroke-width="4"/>

  <line x1="90" y1="335" x2="1090" y2="335" stroke="#47648f" stroke-width="1" stroke-opacity="0.4"/>
  <line x1="90" y1="620" x2="1090" y2="620" stroke="#47648f" stroke-width="1" stroke-opacity="0.4"/>
  <line x1="90" y1="580" x2="1090" y2="580" stroke="#47648f" stroke-width="1" stroke-opacity="0.3"/>
  <line x1="90" y1="540" x2="1090" y2="540" stroke="#47648f" stroke-width="1" stroke-opacity="0.3"/>
  <line x1="90" y1="500" x2="1090" y2="500" stroke="#47648f" stroke-width="1" stroke-opacity="0.3"/>

  <rect x="780" y="172" width="330" height="160" rx="10" fill="#0f1a2e" stroke="#46608c"/>
  <text x="800" y="205" fill="#e8f2ff" font-size="20" font-family="Verdana, sans-serif">Live Indicators</text>
  <text x="800" y="235" fill="#9fc2e8" font-size="17" font-family="Verdana, sans-serif">Motion score: 0.74</text>
  <text x="800" y="262" fill="#9fc2e8" font-size="17" font-family="Verdana, sans-serif">Activity: walking</text>
  <text x="800" y="289" fill="#9fc2e8" font-size="17" font-family="Verdana, sans-serif">Fall risk: 0.21</text>
  <text x="800" y="316" fill="#9fc2e8" font-size="17" font-family="Verdana, sans-serif">Cadence: 101.8 spm</text>
</svg>
